<svg xmlns="http://www.w3.org/2000/svg" xml:space="preserve" viewBox="0 0 500 414">
  <path fill="currentColor" stroke="currentColor" stroke-miterlimit="10" stroke-width="2" d="M494 19 147 366l-15 15-18 18c-3 3-6 4-10 4H9c-4 0-6-4-3-7l78-78L386 15c3-2 6-4 10-4h95c4 0 6 5 3 8z"/>
  <path fill="currentColor" stroke="currentColor" stroke-miterlimit="10" stroke-width="2" d="m424 325-37-37c-6-6-15-6-21 0a123 123 0 0 1-216-81A123 123 0 0 1 312 90l60-61a203 203 0 0 0-257 305 202 202 0 0 0 310 10c4-6 4-14-1-19"/>
</svg>
